<?xml version="1.0" encoding="utf-8"?>
<!-- Generator: Adobe Illustrator 19.1.0, SVG Export Plug-In . SVG Version: 6.00 Build 0)  -->
<svg version="1.1" xmlns="http://www.w3.org/2000/svg" xmlns:xlink="http://www.w3.org/1999/xlink" x="0px" y="0px"
	 viewBox="0 0 561.6 387.7" style="enable-background:new 0 0 561.6 387.7;" xml:space="preserve">
<style type="text/css">
	.st0{fill:#12F700;}
	.st1{fill:#F90000;}
	.st2{clip-path:url(#SVGID_2_);}
	.st3{fill:none;}
	.st4{font-family:'MyriadPro-Regular';}
	.st5{font-size:20px;}
	.st6{fill:#FFFFFF;}
</style>
<g id="Layer_1">
	<circle class="st0" cx="180.5" cy="203.5" r="174.5"/>
</g>
<g id="Layer_3">
	<circle class="st1" cx="379.5" cy="203.5" r="174.5"/>
</g>
<g id="Layer_2">
	<g>
		<defs>
			<circle id="SVGID_1_" cx="379.5" cy="203.5" r="174.5"/>
		</defs>
		<clipPath id="SVGID_2_">
			<use xlink:href="#SVGID_1_"  style="overflow:visible;"/>
		</clipPath>
		<circle class="st2" cx="180.5" cy="203.5" r="174.5"/>
	</g>
</g>
<g id="txt">
	<rect x="6" y="5.7" class="st3" width="348.9" height="23.3"/>
	<text transform="matrix(1 0 0 1 160.8491 19.8664)" class="st4 st5">Data</text>
	<rect x="212.7" y="5.7" class="st3" width="348.9" height="23.3"/>
	<text transform="matrix(1 0 0 1 348.6662 19.8664)" class="st4 st5">Elements</text>
	<rect x="204" y="186" class="st3" width="149.9" height="23.3"/>
	<text transform="matrix(1 0 0 1 248.0195 200.1997)" class="st6 st4 st5">Update</text>
	<rect x="32.7" y="186" class="st3" width="149.9" height="23.3"/>
	<text transform="matrix(1 0 0 1 85.5661 200.1997)" class="st4 st5">Enter</text>
	<rect x="384.7" y="186" class="st3" width="149.9" height="23.3"/>
	<text transform="matrix(1 0 0 1 444.4259 200.1997)" class="st4 st5">Exit</text>
</g>
</svg>
